<svg width="32" height="33" viewBox="0 0 32 33" fill="none" xmlns="http://www.w3.org/2000/svg">
<g clip-path="url(#clip0_206_1445)">
<path d="M16 21.4833C18.7614 21.4833 21 19.2447 21 16.4833C21 13.7219 18.7614 11.4833 16 11.4833C13.2386 11.4833 11 13.7219 11 16.4833C11 19.2447 13.2386 21.4833 16 21.4833Z" stroke="white" stroke-width="2" stroke-linecap="round" stroke-linejoin="round"/>
<path d="M21.5 4.98328H10.5C7.18629 4.98328 4.5 7.66957 4.5 10.9833V21.9833C4.5 25.297 7.18629 27.9833 10.5 27.9833H21.5C24.8137 27.9833 27.5 25.297 27.5 21.9833V10.9833C27.5 7.66957 24.8137 4.98328 21.5 4.98328Z" stroke="white" stroke-width="2" stroke-linecap="round" stroke-linejoin="round"/>
<path d="M22.5 10.9833C23.0523 10.9833 23.5 10.5356 23.5 9.98328C23.5 9.43099 23.0523 8.98328 22.5 8.98328C21.9477 8.98328 21.5 9.43099 21.5 9.98328C21.5 10.5356 21.9477 10.9833 22.5 10.9833Z" fill="white"/>
</g>
<defs>
<clipPath id="clip0_206_1445">
<rect width="32" height="32" fill="white" transform="translate(0 0.483276)"/>
</clipPath>
</defs>
</svg>
