<svg width="423" height="288" viewBox="0 0 423 288" fill="none" xmlns="http://www.w3.org/2000/svg">
<g clip-path="url(#clip0_161_2384)">
<path d="M69.8991 203.332C67.8609 203.551 65.6374 203.88 63.2722 204.36C53.2437 206.398 53.0356 213.195 53.1235 214.753L53.0553 214.711C52.0469 216.325 51.4154 217.959 51.0337 219.501L50.5745 198.671C50.8714 198.053 51.1416 197.352 51.3669 196.634C52.1176 198.941 53.3481 201.121 54.4088 200.977C55.7882 200.789 56.3895 196.738 56.1322 193.859C57.8862 196.114 60.8382 198.525 61.9518 197.782C62.8416 197.188 62.314 194.742 61.3425 192.518C63.3667 193.735 65.6087 194.535 66.3044 193.762C67.2537 192.708 64.9789 189.109 62.881 187.1C65.6891 187.361 69.2606 186.915 69.4948 185.639C69.6877 184.588 67.5621 183.262 65.287 182.408C67.5722 181.807 69.7091 180.759 69.6382 179.723C69.554 178.491 66.3815 177.666 63.6445 177.541C65.7089 175.929 67.6057 173.7 67.0257 172.693C66.4924 171.766 64.0115 172.125 61.7226 172.941C63.0772 171.008 64.0295 168.83 63.3042 168.085C62.4008 167.156 59.1944 168.759 57.0062 170.53C57.4322 167.771 57.2169 164.287 55.9767 163.972C54.9393 163.709 53.4689 165.735 52.4607 167.942C52.0152 165.626 51.1132 163.427 50.0722 163.427C48.5892 163.427 47.3871 167.889 47.3871 170.796C47.3871 170.961 47.3914 171.115 47.399 171.263C47.2501 171.091 47.0795 170.911 46.885 170.723C44.7953 168.697 40.7503 166.449 39.7171 167.511C38.9918 168.256 39.9442 170.434 41.2987 172.367C39.0098 171.551 36.529 171.192 35.9957 172.118C35.2791 173.363 38.3421 176.471 40.8317 177.978C40.6821 177.96 40.5248 177.945 40.3575 177.933C37.4513 177.736 32.9087 178.629 32.8077 180.106C32.7368 181.142 34.8738 182.19 37.1589 182.791C34.8838 183.645 32.7582 184.971 32.9512 186.022C33.1853 187.298 36.7568 187.744 39.565 187.483C37.4671 189.492 35.1923 193.091 36.1416 194.145C36.8373 194.918 39.0792 194.118 41.1035 192.901C40.132 195.125 39.6043 197.57 40.4942 198.164C41.6702 198.95 44.8953 196.217 46.5958 193.866C46.4225 196.742 47.1121 200.694 48.4804 200.85C49.0527 200.915 49.659 200.306 50.2062 199.368L48.6564 221.758C48.2941 224.366 50.6115 226.067 50.8186 227.141L51.1529 242.303C50.7756 241.223 50.2674 240.118 49.5824 239.021L49.5143 239.064C49.6022 237.505 49.3939 230.709 39.3655 228.671C37.0004 228.191 34.7769 227.862 32.7386 227.643C30.3327 227.385 29.3942 230.672 31.5677 231.733C34.7153 233.271 37.6762 235.208 39.2195 237.502C43.1652 243.368 48.6169 239.977 49.392 239.451C50.2578 240.889 50.8255 242.338 51.184 243.717L51.3616 251.769C51.3181 251.96 51.288 252.066 51.2856 252.074L51.3688 252.099L51.7985 271.585L55.7838 271.553L54.3583 251.635C54.5978 250.561 55.3348 246.9 54.3583 243.099L52.9328 227.449C52.9293 227.437 53.0137 227.86 52.9328 227.449L51.0734 221.3C51.3438 219.397 51.9713 217.257 53.2457 215.14C54.0208 215.666 59.4726 219.057 63.4182 213.192C64.9615 210.898 67.9224 208.96 71.07 207.423C73.2435 206.361 72.305 203.074 69.8991 203.332ZM51.6937 249.436L51.6186 246.029C51.7701 247.317 51.7624 248.48 51.6937 249.436Z" fill="#F2F2F2"/>
<path d="M374.898 203.332C372.859 203.551 370.636 203.88 368.271 204.36C358.242 206.398 358.034 213.195 358.122 214.753L358.054 214.711C357.045 216.325 356.414 217.959 356.032 219.501L355.573 198.671C355.87 198.053 356.14 197.352 356.365 196.634C357.116 198.941 358.347 201.121 359.407 200.977C360.787 200.789 361.388 196.738 361.131 193.859C362.885 196.114 365.837 198.525 366.95 197.782C367.84 197.188 367.312 194.742 366.341 192.518C368.365 193.735 370.607 194.535 371.303 193.762C372.252 192.708 369.977 189.109 367.88 187.1C370.688 187.361 374.259 186.915 374.493 185.639C374.686 184.588 372.561 183.262 370.286 182.408C372.571 181.807 374.708 180.759 374.637 179.723C374.553 178.491 371.38 177.666 368.643 177.541C370.707 175.929 372.604 173.7 372.024 172.693C371.491 171.766 369.01 172.125 366.721 172.941C368.076 171.008 369.028 168.83 368.303 168.085C367.399 167.156 364.193 168.759 362.005 170.53C362.431 167.771 362.215 164.287 360.975 163.972C359.938 163.709 358.467 165.735 357.459 167.942C357.014 165.626 356.112 163.427 355.071 163.427C353.588 163.427 352.386 167.889 352.386 170.796C352.386 170.961 352.39 171.115 352.397 171.263C352.249 171.091 352.078 170.911 351.884 170.723C349.794 168.697 345.749 166.449 344.716 167.511C343.99 168.256 344.943 170.434 346.297 172.367C344.008 171.551 341.528 171.192 340.994 172.118C340.278 173.363 343.341 176.471 345.83 177.978C345.681 177.96 345.523 177.945 345.356 177.933C342.45 177.736 337.907 178.629 337.806 180.106C337.735 181.142 339.872 182.19 342.157 182.791C339.882 183.645 337.757 184.971 337.95 186.022C338.184 187.298 341.755 187.744 344.563 187.483C342.466 189.492 340.191 193.091 341.14 194.145C341.836 194.918 344.078 194.118 346.102 192.901C345.131 195.125 344.603 197.57 345.493 198.164C346.669 198.95 349.894 196.217 351.594 193.866C351.421 196.742 352.111 200.694 353.479 200.85C354.051 200.915 354.658 200.306 355.205 199.368L353.655 221.758C353.293 224.366 355.61 226.067 355.817 227.141L356.151 242.303C355.774 241.223 355.266 240.118 354.581 239.021L354.513 239.064C354.601 237.505 354.392 230.709 344.364 228.671C341.999 228.191 339.775 227.862 337.737 227.643C335.331 227.385 334.393 230.672 336.566 231.733C339.714 233.271 342.675 235.208 344.218 237.502C348.164 243.368 353.615 239.977 354.391 239.451C355.256 240.889 355.824 242.338 356.183 243.717L356.36 251.769C356.317 251.96 356.287 252.066 356.284 252.074L356.367 252.099L356.797 271.585L360.782 271.553L359.357 251.635C359.596 250.561 360.333 246.9 359.357 243.099L357.931 227.449C357.928 227.437 358.012 227.86 357.931 227.449L356.072 221.3C356.342 219.397 356.97 217.257 358.244 215.14C359.019 215.666 364.471 219.057 368.417 213.192C369.96 210.898 372.921 208.96 376.069 207.423C378.242 206.361 377.304 203.074 374.898 203.332ZM356.692 249.436L356.617 246.029C356.769 247.317 356.761 248.48 356.692 249.436Z" fill="#F2F2F2"/>
<path d="M313.022 139.562L311.153 95.096C311.153 95.096 309.054 68.6974 307.375 59.4788C305.695 50.2602 294.359 52.7744 294.359 52.7744L295.619 79.173L301.053 106.189L305.283 142.976C305.065 144.04 304.942 145.197 304.942 146.411C304.942 151.565 307.098 155.743 309.758 155.743C312.419 155.743 314.575 151.565 314.575 146.411C314.575 143.7 313.975 141.267 313.022 139.562Z" fill="#FFB6B6"/>
<path d="M222.054 128.04C224.041 125.678 226.421 124.073 228.558 123.455L253.693 95.096C253.693 95.096 255.792 68.6973 257.472 59.4788C259.151 50.2602 270.487 52.7744 270.487 52.7744L269.227 79.173L262.09 107.667L232.678 132.589C232.164 133.523 231.534 134.456 230.78 135.353C227.202 139.607 222.348 141.418 219.938 139.399C217.528 137.379 218.475 132.294 222.054 128.04Z" fill="#FFB6B6"/>
<path d="M277.356 49.2126L280.272 38.0252L291.631 37.4799L295.029 52.9014L277.356 49.2126Z" fill="#FFB6B6"/>
<path opacity="0.1" d="M277.356 49.2126L280.272 38.0252L291.631 37.4799L295.029 52.9014L277.356 49.2126Z" fill="black"/>
<path d="M248.351 232.493L237.712 231.886L239.107 264.473L246.316 264.885L248.351 232.493Z" fill="#FFB6B6"/>
<path d="M238.185 254.17L241.88 255.852L241.875 258.087C241.875 258.087 242.766 255.5 247.55 254.936L248.121 257.103C248.121 257.103 249.976 259.228 249.658 263.073L248.44 273.368L244.833 273.285L244.25 266.121C244.25 266.121 243.256 264.495 238.678 272.22C238.678 272.22 233.635 273.489 225.826 270.875C224.753 270.516 224.007 269.516 224.021 268.386C224.029 267.763 224.273 267.187 225.057 266.98C227.05 266.454 228.998 267.121 230.285 265.533C231.573 263.944 238.185 254.17 238.185 254.17Z" fill="#2F2E41"/>
<path d="M305.449 232.493L294.81 231.886L296.206 264.473L303.415 264.885L305.449 232.493Z" fill="#FFB6B6"/>
<path d="M295.284 254.17L298.978 255.852L298.973 258.087C298.973 258.087 299.864 255.5 304.648 254.936L305.219 257.103C305.219 257.103 307.075 259.228 306.756 263.073L305.539 273.368L301.931 273.285L301.348 266.121C301.348 266.121 300.354 264.495 295.776 272.22C295.776 272.22 290.734 273.489 282.924 270.875C281.851 270.516 281.106 269.516 281.12 268.386C281.127 267.763 281.372 267.187 282.155 266.98C284.149 266.454 286.096 267.121 287.383 265.533C288.671 263.944 295.284 254.17 295.284 254.17Z" fill="#2F2E41"/>
<path d="M286.089 44.6136C293.045 44.6136 298.685 38.9854 298.685 32.0428C298.685 25.1001 293.045 19.472 286.089 19.472C279.133 19.472 273.494 25.1001 273.494 32.0428C273.494 38.9854 279.133 44.6136 286.089 44.6136Z" fill="#FFB6B6"/>
<path d="M293.232 34.1325C293.232 34.1325 287.694 25.0891 282.151 26.0873C276.608 27.0854 273.718 27.9866 273.718 27.9866C273.718 27.9866 271.461 20.7763 279.039 17.317C279.039 17.317 268.314 8.35478 279.745 2.60311C291.175 -3.14856 298.288 2.42574 298.288 2.42574C298.288 2.42574 307.749 10.4336 297.26 17.8445C297.26 17.8445 306.338 28.1659 297.169 38.0252C297.169 38.0252 298.787 30.5179 296.585 32.057C294.383 33.596 293.232 34.1325 293.232 34.1325Z" fill="#2F2E41"/>
<path d="M294.569 50.0507L277.356 47.9556L264.131 58.6407C264.131 58.6407 257.554 76.9313 262.452 87.9725C262.569 88.2371 262.662 106.619 262.662 106.619H299.234C299.234 106.619 299.199 94.1074 300.596 89.5758C300.796 88.9285 301.025 88.444 301.287 88.1821C303.386 86.0869 308.424 72.6781 305.905 66.8117C303.386 60.9454 294.569 50.0507 294.569 50.0507Z" fill="#6C63FF"/>
<path d="M262.452 105.781L239.36 179.111L234.322 236.936H248.387L260.352 183.301L276.83 152.253L293.1 241.127H307.297L306.955 120.866L299.204 105.781H262.452Z" fill="#2F2E41"/>
<path d="M423 271.686H0V272.973H423V271.686Z" fill="#3F3D56"/>
<path d="M216.829 120.622C212.636 113.884 202.854 112.298 195.588 115.513C188.323 118.727 183.3 125.581 179.886 132.744C176.472 139.907 174.325 147.624 170.816 154.741C160.491 175.682 139.584 189.358 126.431 208.656C116.55 223.155 111.317 240.76 111.677 258.292C111.816 265.007 112.904 272.072 117.103 277.321C123.335 285.112 134.369 286.71 144.305 287.736C150.077 288.332 157.16 288.315 160.133 283.341C161.309 281.374 148.674 274.51 148.877 272.229C149.971 259.916 163.929 252.096 165.023 239.783C166.738 248.363 164.54 257.22 164.887 265.962C165.234 274.704 169.551 284.592 178.128 286.399C180.774 286.957 183.763 286.571 185.769 284.76C187.774 282.949 188.36 279.527 186.573 277.501C188.403 279.366 191.491 279.85 193.806 278.636C196.121 277.421 197.472 274.608 196.97 272.046C196.601 270.162 195.383 268.578 194.328 266.973C188.614 258.278 187.126 246.948 190.4 237.077C196.189 219.627 215.2 208.237 218.42 190.139C220.812 176.699 213.989 161.469 221.229 149.889C224.492 144.67 230.033 141.38 234.452 137.091C238.871 132.802 242.327 126.241 239.798 120.631L217.21 120.607" fill="#3F3D56"/>
<path d="M147.172 274.665C146.61 274.665 146.034 274.516 145.477 274.218C144.195 273.531 143.228 272.174 143.014 270.76C142.657 268.409 143.779 266.125 144.681 264.29C147.148 259.27 149.587 253.904 149.946 248.327C150.339 242.239 147.865 236.595 143.643 233.95C140.505 231.984 136.316 231.478 131.848 232.527C127.89 233.456 124.334 235.355 120.428 237.558C120.117 237.733 119.724 237.624 119.549 237.314C119.374 237.005 119.483 236.612 119.793 236.437C123.64 234.268 127.434 232.24 131.552 231.274C136.359 230.146 140.897 230.709 144.329 232.86C148.946 235.753 151.656 241.857 151.233 248.41C150.859 254.222 148.363 259.721 145.839 264.856C144.973 266.618 143.992 268.614 144.289 270.568C144.442 271.579 145.165 272.59 146.087 273.083C146.536 273.324 147.221 273.541 147.932 273.21C148.256 273.059 148.639 273.2 148.789 273.522C148.939 273.844 148.8 274.227 148.477 274.377C148.062 274.57 147.622 274.665 147.172 274.665Z" fill="#2F2E41"/>
<path d="M196.588 120.18C195.743 122.489 196.87 125.075 198.431 126.975C199.992 128.875 201.997 130.403 203.373 132.44C206.257 136.711 205.824 142.55 203.608 147.202C201.393 151.853 197.657 155.58 193.994 159.207C194.265 157.651 193.477 156.081 192.403 154.922C191.329 153.763 189.977 152.903 188.776 151.875C183.184 147.091 181.435 138.372 184.75 131.807" fill="#2F2E41"/>
<path d="M120.208 257.497C115.472 256.917 111.47 261.171 106.743 261.824C101.277 262.578 96.2495 258.261 93.8173 253.317C91.3852 248.373 90.761 242.761 89.0878 237.513C87.4146 232.264 84.1864 226.948 78.9272 225.28C76.7207 224.58 74.2242 224.618 72.1744 225.693C70.1246 226.767 68.6222 228.96 68.6735 231.27C68.7366 234.113 70.9208 236.388 72.244 238.906C74.3494 242.913 74.284 247.658 75.2141 252.086C77.4501 262.732 86.1269 271.76 96.6916 274.433C102.155 275.815 108.271 275.499 113.004 272.444C117.736 269.389 120.621 263.237 118.869 257.89" fill="#3F3D56"/>
</g>
<defs>
<clipPath id="clip0_161_2384">
<rect width="423" height="288" fill="white"/>
</clipPath>
</defs>
</svg>
