<svg width="309" height="65" viewBox="0 0 309 65" fill="none" xmlns="http://www.w3.org/2000/svg">
<g clip-path="url(#clip0_201_1462)">
<path d="M17.238 58.1506C12.1609 55.6669 11.6793 62.2704 8.93006 60.7329C6.1808 59.2151 4.01351 57.0664 2.40811 54.3265C0.802702 51.5865 0 48.3537 0 44.6281C0 40.9026 0.802702 37.6107 2.40811 34.8707C4.01351 32.1307 6.1808 30.0018 8.93006 28.5037C11.6793 27.0056 14.7697 26.2565 18.1812 26.2565C21.2515 26.2565 23.9205 26.9267 26.2283 28.2474C28.516 29.5681 30.302 31.5985 31.5662 34.299C32.8305 36.9996 33.4526 40.4492 33.4526 44.6479C33.4526 48.8465 35.2988 54.2279 31.6264 54.977C28.6565 55.588 28.6564 59.7276 26.3888 61.0483C24.1212 62.369 21.2515 60.1415 17.238 58.1703V58.1506ZM13.4051 39.0496C11.5188 39.2073 10.1341 40.1338 9.23107 41.9276C9.13073 42.1444 8.76952 42.9132 8.90999 43.7214C9.29127 45.6137 11.298 45.8897 12.2011 46.5205C15.5724 48.9451 10.2746 48.0383 9.87323 49.5364C9.37154 51.4485 11.6392 54.2279 14.1275 54.0308C16.636 53.8337 18.1009 49.497 20.1077 49.6941C22.295 49.8913 22.0141 54.9375 24.2015 54.6813C24.2817 54.6813 25.265 54.5433 25.847 53.7745C26.5895 52.8086 30.1214 52.513 30.7033 51.5668C31.5462 50.1869 29.5394 50.3446 30.3221 49.1028C31.0044 48.0186 29.5595 46.9936 30.1615 44.9238C30.5629 43.5243 31.4057 43.4257 32.0077 41.9276C32.6098 40.3703 32.6298 38.1035 31.5863 37.1573C29.9006 35.5803 28.0143 38.5765 25.7065 37.2558C23.2984 35.8957 23.5994 31.6182 21.2716 31.0268C20.0274 30.7114 18.0608 31.6182 17.0775 32.0716C16.2948 32.4264 15.8935 32.6038 15.5925 32.8995C13.8065 34.6144 18.2615 38.6751 13.4252 39.0496H13.4051ZM36.1416 62.5464C32.1883 62.5464 28.9575 59.8656 28.9575 56.5539V53.6957L29.1782 44.0959C29.2183 41.9276 29.1782 39.7593 28.9976 37.5909L28.4758 30.5735C23.2382 28.5628 28.2952 27.2421 28.2952 25.5666V8.94935C28.2952 6.01225 16.3751 2.01071 23.5994 1.16309C25.6263 0.926548 27.6932 1.08424 29.6799 1.53762L34.175 2.54294C35.66 2.87804 37.9678 2.58236 39.3123 1.89244C50.7508 -4.10002 43.3258 6.01226 43.3258 8.96906V56.5934C43.3258 59.905 40.115 62.5858 36.1416 62.5858V62.5464Z" fill="#0171D9"/>
<path d="M63.7345 60.6343C60.5438 60.6343 57.7343 60.0232 55.3062 58.7814C52.878 57.5592 51.0117 55.864 49.6872 53.7351C48.3628 51.6062 47.7006 49.1619 47.7006 46.4219C47.7006 43.6819 48.3628 41.1982 49.6672 39.0693C50.9716 36.9404 52.7576 35.2649 55.0252 34.0428C57.2928 32.8206 59.8414 32.2292 62.691 32.2292C65.5406 32.2292 67.9086 32.8009 70.1361 33.9442C72.3435 35.0875 74.0894 36.7236 75.3737 38.8722C76.658 41.0011 77.3002 43.5637 77.3002 46.5402C77.3002 46.8556 77.3002 47.1907 77.24 47.5849C77.1999 47.9792 77.1798 48.3537 77.1396 48.6888H54.3429V44.017H72.8653L69.7347 45.3969C69.7347 43.9579 69.4337 42.7161 68.8518 41.6516C68.2698 40.5872 67.447 39.7592 66.4035 39.1679C65.36 38.5765 64.1359 38.2611 62.7512 38.2611C61.3666 38.2611 60.1424 38.5568 59.0789 39.1679C58.0153 39.779 57.1925 40.6069 56.6105 41.6713C56.0286 42.7555 55.7276 44.017 55.7276 45.4955V46.7176C55.7276 48.2157 56.0687 49.5364 56.751 50.6797C57.4333 51.823 58.3765 52.6903 59.6207 53.3014C60.8649 53.8928 62.3097 54.2082 63.9753 54.2082C65.4804 54.2082 66.7848 53.9913 67.9086 53.538C69.0324 53.0846 70.0759 52.4341 71.019 51.547L75.3536 56.1597C74.0693 57.5986 72.4438 58.7025 70.4973 59.4713C68.5507 60.2401 66.3032 60.6146 63.7747 60.6146L63.7345 60.6343Z" fill="white"/>
<path d="M89.8628 59.9937L78.0631 32.4165H86.4714L96.2844 56.1498H92.1104L102.285 32.4165H110.111L98.2711 59.9937H89.8628Z" fill="white"/>
<path d="M108.806 64.833V60.2203H134.894V64.833H108.806Z" fill="white"/>
<path d="M150.968 60.6342C147.938 60.6342 145.249 60.0232 142.881 58.8207C140.513 57.5986 138.667 55.9231 137.322 53.7745C135.978 51.6258 135.315 49.1815 135.315 46.4416C135.315 43.7016 135.978 41.2179 137.322 39.089C138.667 36.9601 140.513 35.2846 142.881 34.0624C145.249 32.8403 147.938 32.2489 150.968 32.2489C153.998 32.2489 156.507 32.86 158.694 34.0624C160.881 35.2648 162.507 37.0192 163.55 39.2664L157.229 42.5977C156.507 41.2967 155.584 40.3505 154.5 39.7198C153.396 39.1087 152.212 38.7933 150.928 38.7933C149.543 38.7933 148.279 39.1087 147.175 39.7198C146.072 40.3308 145.189 41.1982 144.546 42.3415C143.904 43.4651 143.583 44.8449 143.583 46.4416C143.583 48.0382 143.904 49.4181 144.546 50.5417C145.189 51.6653 146.072 52.5326 147.175 53.1634C148.279 53.7942 149.543 54.0898 150.928 54.0898C152.212 54.0898 153.396 53.7942 154.5 53.1831C155.604 52.5917 156.507 51.6258 157.229 50.2854L163.55 53.6759C162.507 55.9034 160.881 57.6183 158.694 58.8207C156.507 60.0232 153.918 60.6342 150.968 60.6342Z" fill="white"/>
<path d="M181.792 60.6343C178.601 60.6343 175.792 60.0232 173.364 58.7814C170.935 57.5592 169.069 55.864 167.745 53.7351C166.42 51.6062 165.758 49.1619 165.758 46.4219C165.758 43.6819 166.42 41.1982 167.725 39.0693C169.029 36.9404 170.815 35.2649 173.083 34.0428C175.35 32.8206 177.899 32.2292 180.748 32.2292C183.598 32.2292 185.966 32.8009 188.193 33.9442C190.401 35.0875 192.147 36.7236 193.431 38.8722C194.715 41.0011 195.358 43.5637 195.358 46.5402C195.358 46.8556 195.358 47.1907 195.297 47.5849C195.257 47.9792 195.237 48.3537 195.197 48.6888H172.4V44.017H190.923L187.792 45.3969C187.792 43.9579 187.491 42.7161 186.909 41.6516C186.327 40.5872 185.504 39.7592 184.461 39.1679C183.417 38.5765 182.193 38.2611 180.809 38.2611C179.424 38.2611 178.2 38.5568 177.136 39.1679C176.073 39.779 175.25 40.6069 174.668 41.6713C174.086 42.7555 173.785 44.017 173.785 45.4955V46.7176C173.785 48.2157 174.126 49.5364 174.808 50.6797C175.491 51.823 176.434 52.6903 177.678 53.3014C178.922 53.8928 180.367 54.2082 182.033 54.2082C183.538 54.2082 184.842 53.9913 185.966 53.538C187.09 53.0846 188.133 52.4341 189.076 51.547L193.411 56.1597C192.127 57.5986 190.501 58.7025 188.555 59.4713C186.608 60.2401 184.361 60.6146 181.832 60.6146L181.792 60.6343Z" fill="white"/>
<path d="M217.853 32.2292C220.081 32.2292 222.067 32.6629 223.833 33.5302C225.599 34.3976 226.964 35.738 227.987 37.5318C228.991 39.3256 229.492 41.6319 229.492 44.431V60.2203H221.345V45.6729C221.345 43.4454 220.843 41.8093 219.86 40.7449C218.877 39.6804 217.472 39.1482 215.666 39.1482C214.382 39.1482 213.218 39.4044 212.194 39.9367C211.171 40.4689 210.368 41.2771 209.786 42.3809C209.204 43.4848 208.923 44.8844 208.923 46.5796V60.2203H200.776V32.6432H208.542V40.2718L207.077 37.9655C208.08 36.1125 209.525 34.713 211.412 33.7077C213.298 32.722 215.425 32.2292 217.833 32.2292H217.853Z" fill="white"/>
<path d="M233.506 39.4044V33.2543H252.971V39.4044H233.506ZM248.316 60.6146C245.005 60.6146 242.436 59.7867 240.59 58.1309C238.743 56.4751 237.82 54.0111 237.82 50.7191V26.5325H245.968V50.6206C245.968 51.7836 246.289 52.6706 246.911 53.3014C247.533 53.9322 248.396 54.2476 249.46 54.2476C250.744 54.2476 251.848 53.9125 252.751 53.2226L254.938 58.8602C254.095 59.4319 253.112 59.8853 251.928 60.1612C250.764 60.4569 249.56 60.5949 248.296 60.5949L248.316 60.6146Z" fill="white"/>
<path d="M272.577 60.6343C269.387 60.6343 266.577 60.0232 264.149 58.7814C261.721 57.5592 259.855 55.864 258.53 53.7351C257.206 51.6062 256.543 49.1619 256.543 46.4219C256.543 43.6819 257.206 41.1982 258.51 39.0693C259.814 36.9404 261.6 35.2649 263.868 34.0428C266.136 32.8206 268.684 32.2292 271.534 32.2292C274.384 32.2292 276.751 32.8009 278.979 33.9442C281.186 35.0875 282.932 36.7236 284.217 38.8722C285.501 41.0011 286.143 43.5637 286.143 46.5402C286.143 46.8556 286.143 47.1907 286.083 47.5849C286.043 47.9792 286.023 48.3537 285.983 48.6888H263.186V44.017H281.708L278.578 45.3969C278.578 43.9579 278.277 42.7161 277.695 41.6516C277.113 40.5872 276.29 39.7592 275.246 39.1679C274.203 38.5765 272.979 38.2611 271.594 38.2611C270.209 38.2611 268.985 38.5568 267.922 39.1679C266.858 39.779 266.035 40.6069 265.453 41.6713C264.871 42.7555 264.57 44.017 264.57 45.4955V46.7176C264.57 48.2157 264.912 49.5364 265.594 50.6797C266.276 51.823 267.219 52.6903 268.464 53.3014C269.708 53.8928 271.153 54.2082 272.818 54.2082C274.323 54.2082 275.628 53.9913 276.751 53.538C277.875 53.0846 278.919 52.4341 279.862 51.547L284.197 56.1597C282.912 57.5986 281.287 58.7025 279.34 59.4713C277.394 60.2401 275.146 60.6146 272.618 60.6146L272.577 60.6343Z" fill="white"/>
<path d="M291.581 60.2203V32.6432H299.348V40.4295L298.244 38.1823C299.087 36.2308 300.411 34.7524 302.257 33.7471C304.104 32.7418 306.351 32.2292 308.98 32.2292V39.6016C308.639 39.5621 308.318 39.5424 308.037 39.5227C307.756 39.5227 307.455 39.503 307.154 39.503C304.926 39.503 303.12 40.1338 301.756 41.3756C300.371 42.6175 299.689 44.569 299.689 47.1907V60.2006H291.541L291.581 60.2203Z" fill="white"/>
</g>
<defs>
<clipPath id="clip0_201_1462">
<rect width="309" height="64.8329" fill="white"/>
</clipPath>
</defs>
</svg>
