<svg width="20" height="20" viewBox="0 0 20 20" fill="none" xmlns="http://www.w3.org/2000/svg">
<path d="M6.24999 12.7083C6.09166 12.7083 5.93333 12.65 5.80833 12.525C5.56666 12.2833 5.56666 11.8833 5.80833 11.6417L8.47499 8.97501C8.60833 8.84168 8.78333 8.77501 8.97499 8.79168C9.15833 8.80835 9.32499 8.90835 9.43333 9.06668L10.3417 10.4333L13.3 7.47501C13.5417 7.23335 13.9417 7.23335 14.1833 7.47501C14.425 7.71668 14.425 8.11668 14.1833 8.35835L10.6833 11.8583C10.55 11.9917 10.375 12.0583 10.1833 12.0417C9.99999 12.025 9.83333 11.925 9.72499 11.7667L8.81666 10.4L6.69166 12.525C6.56666 12.65 6.40833 12.7083 6.24999 12.7083Z" fill="#15803D"/>
<path d="M13.75 10.2083C13.4083 10.2083 13.125 9.92499 13.125 9.58332V8.54166H12.0833C11.7416 8.54166 11.4583 8.25832 11.4583 7.91666C11.4583 7.57499 11.7416 7.29166 12.0833 7.29166H13.75C14.0916 7.29166 14.375 7.57499 14.375 7.91666V9.58332C14.375 9.92499 14.0916 10.2083 13.75 10.2083Z" fill="#15803D"/>
<path d="M12.5 18.9583H7.50002C2.97502 18.9583 1.04169 17.025 1.04169 12.5V7.49999C1.04169 2.97499 2.97502 1.04166 7.50002 1.04166H12.5C17.025 1.04166 18.9584 2.97499 18.9584 7.49999V12.5C18.9584 17.025 17.025 18.9583 12.5 18.9583ZM7.50002 2.29166C3.65835 2.29166 2.29169 3.65832 2.29169 7.49999V12.5C2.29169 16.3417 3.65835 17.7083 7.50002 17.7083H12.5C16.3417 17.7083 17.7084 16.3417 17.7084 12.5V7.49999C17.7084 3.65832 16.3417 2.29166 12.5 2.29166H7.50002Z" fill="#15803D"/>
</svg>
