<svg width="144" height="144" viewBox="0 0 144 144" fill="none" xmlns="http://www.w3.org/2000/svg">
<path d="M28.7189 108.842C27.7589 107.693 27.1609 106.218 27.1609 104.604V52.661C27.1609 49.005 30.1249 46.041 33.7809 46.041H99.0389" stroke="white" stroke-miterlimit="10" stroke-linecap="round" stroke-linejoin="round"/>
<path d="M128.897 71.856V104.604C128.897 106.225 128.33 107.691 127.363 108.842" stroke="white" stroke-miterlimit="10" stroke-linecap="round" stroke-linejoin="round"/>
<path d="M125.014 77.441V98.236C125.014 101.892 122.05 104.856 118.394 104.856H37.6649C34.0089 104.856 31.0449 101.892 31.0449 98.236V56.068C31.0449 52.412 34.0089 49.448 37.6649 49.448H99.5119" stroke="white" stroke-miterlimit="10" stroke-linecap="round" stroke-linejoin="round"/>
<path d="M136.502 108.842H19.5569C17.9019 108.842 16.5599 110.184 16.5599 111.839V112.055C16.5599 113.71 17.9019 115.052 19.5569 115.052H136.501C138.156 115.052 139.498 113.71 139.498 112.055V111.839C139.499 110.184 138.157 108.842 136.502 108.842Z" stroke="white" stroke-miterlimit="10" stroke-linecap="round" stroke-linejoin="round"/>
<path opacity="0.3" d="M97.106 111.948H58.953C58.129 111.948 57.454 111.274 57.454 110.449V110.341C57.454 109.517 58.128 108.842 58.953 108.842H97.106C97.93 108.842 98.605 109.516 98.605 110.341V110.449C98.604 111.273 97.93 111.948 97.106 111.948Z" fill="#A6A6A6" fill-opacity="0.666667"/>
<path d="M97.106 111.948H58.953C58.129 111.948 57.454 111.274 57.454 110.449V110.341C57.454 109.517 58.128 108.842 58.953 108.842H97.106C97.93 108.842 98.605 109.516 98.605 110.341V110.449C98.604 111.273 97.93 111.948 97.106 111.948Z" stroke="white" stroke-miterlimit="10" stroke-linecap="round" stroke-linejoin="round"/>
<path d="M41.36 59.5549H76.36" stroke="white" stroke-miterlimit="10" stroke-linecap="round" stroke-linejoin="round"/>
<path d="M41.36 69.5549H81.36" stroke="white" stroke-miterlimit="10" stroke-linecap="round" stroke-linejoin="round"/>
<path d="M7.4989 43.656V53.368" stroke="white" stroke-miterlimit="10" stroke-linecap="round" stroke-linejoin="round"/>
<path d="M12.3549 48.512H2.64294" stroke="white" stroke-miterlimit="10" stroke-linecap="round" stroke-linejoin="round"/>
<path d="M15.4629 65.2889V71.1039" stroke="white" stroke-miterlimit="10" stroke-linecap="round" stroke-linejoin="round"/>
<path d="M18.3699 68.1959H12.5559" stroke="white" stroke-miterlimit="10" stroke-linecap="round" stroke-linejoin="round"/>
<path d="M137.801 54.345L141.032 53.468L138.964 45.853L135.248 46.862C134.203 44.965 133.002 43.49 131.642 42.265L133.525 38.73L126.577 34.679L124.668 37.996C122.557 37.326 120.208 37.006 118.051 37.092L117.154 33.788L110.047 35.718L110.944 39.022C108.025 40.315 106.804 41.56 105.322 43.205L101.79 41.321L97.7409 48.268L101.158 50.543C100.604 52.288 100.273 54.179 100.331 56.344L96.3199 57.433L98.3879 65.048L101.914 64.09C102.994 66.522 104.512 68.41 106.436 70.143L104.467 73.364L111.372 77.258L113.62 73.765C115.731 74.435 117.404 74.854 120.576 74.493L121.626 78.359L128.733 76.429L127.683 72.563C129.587 71.545 131.463 70.123 132.945 68.477L136.297 70.41L140.256 63.487L136.964 61.851C137.749 59.384 138.1 56.99 137.801 54.345ZM121.896 67.306C115.584 69.02 109.077 65.293 107.363 58.981C105.649 52.669 109.376 46.162 115.688 44.447C122 42.733 128.507 46.46 130.222 52.772C131.936 59.085 128.208 65.592 121.896 67.306Z" stroke="white" stroke-miterlimit="10" stroke-linecap="round" stroke-linejoin="round"/>
<path opacity="0.3" d="M137.801 54.345L141.032 53.468L138.964 45.853L135.248 46.862C134.203 44.965 133.002 43.49 131.642 42.265L133.525 38.73L126.577 34.679L124.668 37.996C122.557 37.326 120.208 37.006 118.051 37.092L117.154 33.788L110.047 35.718L110.944 39.022C108.025 40.315 106.804 41.56 105.322 43.205L101.79 41.321L97.7409 48.268L101.158 50.543C100.604 52.288 100.273 54.179 100.331 56.344L96.3199 57.433L98.3879 65.048L101.914 64.09C102.994 66.522 104.512 68.41 106.436 70.143L104.467 73.364L111.372 77.258L113.62 73.765C115.731 74.435 117.404 74.854 120.576 74.493L121.626 78.359L128.733 76.429L127.683 72.563C129.587 71.545 131.463 70.123 132.945 68.477L136.297 70.41L140.256 63.487L136.964 61.851C137.749 59.384 138.1 56.99 137.801 54.345ZM121.896 67.306C115.584 69.02 109.077 65.293 107.363 58.981C105.649 52.669 109.376 46.162 115.688 44.447C122 42.733 128.507 46.46 130.222 52.772C131.936 59.085 128.208 65.592 121.896 67.306Z" fill="#A6A6A6" fill-opacity="0.666667"/>
<path d="M41.36 78.5549H95.36" stroke="white" stroke-miterlimit="10" stroke-linecap="round" stroke-linejoin="round"/>
<path opacity="0.3" d="M112.973 96.86H43.0859C41.7569 96.86 40.6689 95.773 40.6689 94.443V89.261C40.6689 87.932 41.7569 86.844 43.0859 86.844H112.973C114.302 86.844 115.39 87.931 115.39 89.261V94.443C115.39 95.773 114.302 96.86 112.973 96.86Z" fill="#A6A6A6" fill-opacity="0.666667"/>
</svg>
