<svg width="120" height="127" viewBox="0 0 120 127" fill="none" xmlns="http://www.w3.org/2000/svg">
<path d="M79.4249 68.6396L78.2349 67.9391C77.892 67.7491 77.6114 67.4521 77.4307 67.0876C77.25 66.7232 77.1777 66.3086 77.2234 65.8991C77.4391 64.308 77.4391 62.692 77.2234 61.1009C77.1777 60.6915 77.25 60.2769 77.4307 59.9124C77.6114 59.548 77.892 59.2509 78.2349 59.061L79.4249 58.3605C79.6551 58.2302 79.858 58.0512 80.0212 57.8344C80.1844 57.6176 80.3045 57.3675 80.3741 57.0996C80.4437 56.8316 80.4614 56.5512 80.426 56.2757C80.3907 56.0002 80.3031 55.7352 80.1686 55.497L76.8831 49.6749C76.5958 49.1881 76.1446 48.8373 75.6223 48.6948C75.1 48.5524 74.5464 48.629 74.0755 48.9089L72.8725 49.6094C72.505 49.8176 72.0896 49.9095 71.6749 49.8744C71.2602 49.8392 70.8635 49.6785 70.5315 49.411C69.3463 48.4842 68.057 47.7195 66.6937 47.1349C66.3114 46.9896 65.979 46.7246 65.7402 46.3744C65.5013 46.0242 65.3671 45.6053 65.355 45.1723V43.7674C65.3487 43.4854 65.2904 43.2075 65.1835 42.9496C65.0766 42.6916 64.923 42.4587 64.7317 42.2641C64.5404 42.0695 64.315 41.917 64.0685 41.8154C63.8219 41.7138 63.559 41.665 63.2948 41.6719H56.7052C56.1725 41.6597 55.6571 41.8734 55.2719 42.2662C54.8867 42.6591 54.6633 43.199 54.6506 43.7674V45.1723C54.6385 45.6053 54.5043 46.0242 54.2654 46.3744C54.0265 46.7246 53.6942 46.9896 53.3118 47.1349C51.9466 47.7191 50.6554 48.4838 49.4685 49.411C49.1365 49.6785 48.7398 49.8392 48.3251 49.8744C47.9104 49.9095 47.495 49.8176 47.1275 49.6094L45.9245 48.901C45.4536 48.621 44.9 48.5444 44.3777 48.6869C43.8554 48.8294 43.4042 49.1801 43.1169 49.6669L39.8221 55.4891C39.6879 55.7279 39.6008 55.9934 39.5662 56.2694C39.5315 56.5453 39.55 56.8259 39.6205 57.094C39.691 57.362 39.812 57.6119 39.9762 57.8283C40.1403 58.0448 40.3441 58.2231 40.5751 58.3526L41.7651 59.053C42.108 59.243 42.3886 59.54 42.5693 59.9045C42.75 60.2689 42.8223 60.6835 42.7766 61.093C42.5609 62.6841 42.5609 64.3001 42.7766 65.8912C42.8223 66.3006 42.75 66.7152 42.5693 67.0797C42.3886 67.4442 42.108 67.7412 41.7651 67.9311L40.5751 68.6316C40.3441 68.761 40.1403 68.9394 39.9762 69.1558C39.812 69.3722 39.691 69.6221 39.6205 69.8902C39.55 70.1583 39.5315 70.4389 39.5662 70.7148C39.6008 70.9908 39.6879 71.2563 39.8221 71.4951L43.1169 77.3172C43.4042 77.804 43.8554 78.1548 44.3777 78.2973C44.9 78.4398 45.4536 78.3631 45.9245 78.0832L47.1275 77.3906C47.495 77.1824 47.9104 77.0905 48.3251 77.1257C48.7398 77.1608 49.1365 77.3216 49.4685 77.5891C50.6537 78.5159 51.9429 79.2805 53.3062 79.8652C53.6886 80.0104 54.0209 80.2755 54.2598 80.6256C54.4987 80.9758 54.6329 81.3948 54.645 81.8277V83.2326C54.6513 83.5146 54.7095 83.7925 54.8165 84.0505C54.9234 84.3084 55.0769 84.5413 55.2683 84.7359C55.4596 84.9305 55.685 85.083 55.9315 85.1846C56.1781 85.2862 56.441 85.335 56.7052 85.3281H63.2948C63.8275 85.3404 64.3429 85.1267 64.7281 84.7338C65.1133 84.341 65.3367 83.8011 65.3494 83.2326V81.8277C65.3615 81.3948 65.4957 80.9758 65.7346 80.6256C65.9735 80.2755 66.3058 80.0104 66.6882 79.8652C68.0534 79.281 69.3446 78.5163 70.5315 77.5891C70.8635 77.3216 71.2602 77.1608 71.6749 77.1257C72.0896 77.0905 72.505 77.1824 72.8725 77.3906L74.0755 78.0991C74.5464 78.379 75.1 78.4556 75.6223 78.3131C76.1446 78.1707 76.5958 77.8199 76.8831 77.3331L80.1779 71.5109C80.3133 71.2718 80.4014 71.0057 80.4367 70.7289C80.472 70.4521 80.4538 70.1705 80.3833 69.9014C80.3127 69.6324 80.1913 69.3817 80.0264 69.1646C79.8616 68.9476 79.6569 68.7689 79.4249 68.6396ZM60 72.4297C58.3451 72.4297 56.7274 71.906 55.3514 70.9248C53.9755 69.9436 52.903 68.549 52.2697 66.9173C51.6364 65.2856 51.4707 63.4901 51.7936 61.7579C52.1164 60.0257 52.9133 58.4346 54.0835 57.1858C55.2537 55.9369 56.7446 55.0865 58.3676 54.7419C59.9907 54.3974 61.6731 54.5742 63.202 55.2501C64.7309 55.9259 66.0377 57.0705 66.9571 58.539C67.8765 60.0074 68.3672 61.7339 68.3672 63.5C68.3672 65.8683 67.4856 68.1396 65.9165 69.8143C64.3473 71.4889 62.2191 72.4297 60 72.4297Z" fill="#748CA6"/>
<path d="M20.0234 111.125C23.1042 111.125 25.6016 108.46 25.6016 105.172C25.6016 101.884 23.1042 99.2188 20.0234 99.2188C16.9427 99.2188 14.4453 101.884 14.4453 105.172C14.4453 108.46 16.9427 111.125 20.0234 111.125Z" fill="#95C0F8"/>
<path d="M99.9766 27.7812C103.057 27.7812 105.555 25.1159 105.555 21.8281C105.555 18.5403 103.057 15.875 99.9766 15.875C96.8958 15.875 94.3984 18.5403 94.3984 21.8281C94.3984 25.1159 96.8958 27.7812 99.9766 27.7812Z" fill="#D99899"/>
<path d="M33.0391 39.6875C36.1198 39.6875 38.6172 37.0222 38.6172 33.7344C38.6172 30.4466 36.1198 27.7812 33.0391 27.7812C29.9583 27.7812 27.4609 30.4466 27.4609 33.7344C27.4609 37.0222 29.9583 39.6875 33.0391 39.6875Z" fill="#85CCBE"/>
<path d="M86.9609 99.2188C90.0417 99.2188 92.5391 96.5534 92.5391 93.2656C92.5391 89.9778 90.0417 87.3125 86.9609 87.3125C83.8802 87.3125 81.3828 89.9778 81.3828 93.2656C81.3828 96.5534 83.8802 99.2188 86.9609 99.2188Z" fill="#FFEB8C"/>
<path d="M71.9743 79.119L73.1774 79.8294C74.0705 80.3513 75.1168 80.4888 76.1019 80.2135C77.0869 79.9382 77.9359 79.2711 78.4747 78.349L81.7695 72.5309C82.033 72.0702 82.2057 71.557 82.2769 71.0227C82.3482 70.4884 82.3167 69.9442 82.1842 69.4233C82.051 68.8902 81.8174 68.3916 81.4978 67.958C81.1781 67.5244 80.779 67.1648 80.3248 66.9012L79.0641 66.1828C79.1842 65.2943 79.2445 64.3977 79.2445 63.5C79.2445 62.611 79.1831 61.714 79.1329 60.7992L80.3248 60.0968C80.779 59.8337 81.1781 59.4745 81.4978 59.0412C81.8175 58.6079 82.0511 58.1095 82.1842 57.5766C82.3164 57.0561 82.3478 56.5122 82.2766 55.9783C82.2053 55.4443 82.0327 54.9315 81.7695 54.4711L78.4747 48.6489C77.935 47.7279 77.0859 47.0618 76.1011 46.787C75.1164 46.5122 74.0704 46.6494 73.1774 47.1705L71.9762 47.879C71.9181 47.9009 71.8555 47.9062 71.7949 47.8944C71.7342 47.8826 71.6775 47.854 71.6304 47.8115C70.3174 46.7846 68.8888 45.9379 67.378 45.2913C67.3134 45.2668 67.2554 45.2259 67.2088 45.1723V43.7693C67.1955 42.6746 66.7761 41.6301 66.0424 40.865C65.3087 40.0998 64.3206 39.6763 63.2948 39.6875H56.7052C55.6794 39.6763 54.6913 40.0998 53.9576 40.865C53.2239 41.6301 52.8044 42.6746 52.7912 43.7693V45.1584C52.748 45.2222 52.6867 45.2695 52.6164 45.2933C51.1053 45.9392 49.6765 46.7859 48.364 47.8135C48.3176 47.8558 48.2615 47.8843 48.2014 47.8962C48.1414 47.908 48.0794 47.9028 48.0219 47.881L46.8189 47.1705C45.9257 46.6491 44.8794 46.5119 43.8945 46.7872C42.9096 47.0624 42.0606 47.7292 41.5215 48.6509L38.2267 54.4691C37.9632 54.9297 37.7906 55.4429 37.7193 55.9772C37.648 56.5115 37.6795 57.0558 37.812 57.5766C37.9452 58.1097 38.1788 58.6083 38.4985 59.042C38.8181 59.4756 39.2172 59.8352 39.6714 60.0987L40.9321 60.8171C40.8132 61.7057 40.7542 62.6023 40.7554 63.5C40.7554 64.389 40.8168 65.2859 40.867 66.2007L39.6751 66.9032C39.221 67.1663 38.8218 67.5254 38.5021 67.9588C38.1824 68.3921 37.9489 68.8904 37.8158 69.4233C37.6835 69.9439 37.6521 70.4877 37.7234 71.0217C37.7947 71.5556 37.9672 72.0685 38.2304 72.5289L41.5252 78.351C42.0646 79.2724 42.9138 79.9388 43.8986 80.2136C44.8835 80.4885 45.9296 80.351 46.8226 79.8294L48.0237 79.121C48.0817 79.0978 48.1445 79.0918 48.2054 79.1037C48.2663 79.1155 48.323 79.1448 48.3696 79.1884C49.6825 80.2153 51.1112 81.062 52.622 81.7086C52.6865 81.7332 52.7446 81.774 52.7912 81.8277V83.2306C52.8044 84.3253 53.2239 85.3698 53.9576 86.135C54.6913 86.9001 55.6794 87.3236 56.7052 87.3125H63.2948C64.3206 87.3236 65.3087 86.9001 66.0424 86.135C66.7761 85.3698 67.1955 84.3253 67.2088 83.2306V81.8415C67.252 81.7777 67.3132 81.7304 67.3835 81.7066C68.8947 81.0607 70.3234 80.214 71.6359 79.1865C71.682 79.1448 71.7374 79.1167 71.7968 79.1049C71.8561 79.0931 71.9173 79.0979 71.9743 79.119ZM69.4344 75.9876C68.3738 76.8162 67.2201 77.4995 66.0002 78.0216C65.2719 78.3134 64.6429 78.8326 64.1951 79.5115C63.7474 80.1904 63.5017 80.9975 63.49 81.8277V83.2306C63.49 83.2643 63.4212 83.3437 63.2948 83.3437H56.7052C56.5787 83.3437 56.5099 83.2643 56.5099 83.2306V81.8277C56.4984 80.9983 56.2532 80.1918 55.8061 79.5133C55.3591 78.8348 54.7309 78.3157 54.0035 78.0236C52.7831 77.5012 51.6288 76.8179 50.5674 75.9896C49.8601 75.4331 49.0048 75.132 48.126 75.1304C47.4624 75.1274 46.809 75.305 46.2276 75.6463L45.0246 76.3567C44.9734 76.3862 44.9145 76.3965 44.8572 76.3861C44.7999 76.3756 44.7476 76.3451 44.7085 76.2992L41.4713 70.3778L42.6669 69.6753C43.342 69.2927 43.891 68.6983 44.2398 67.9724C44.5886 67.2464 44.7203 66.4237 44.6174 65.6153C44.4265 64.2118 44.4265 62.7862 44.6174 61.3826C44.7201 60.5736 44.5876 59.7503 44.2378 59.0242C43.888 58.2981 43.3377 57.7041 42.6613 57.3226L41.4137 56.5289L44.7085 50.7107C44.7466 50.6632 44.7989 50.6314 44.8565 50.6205C44.9142 50.6097 44.9736 50.6205 45.0246 50.6511L46.2294 51.3635C46.9084 51.7506 47.6765 51.9238 48.4441 51.863C49.2118 51.8022 49.9475 51.51 50.5655 51.0202C51.6261 50.1917 52.7799 49.5084 53.9998 48.9863C54.728 48.6945 55.3571 48.1753 55.8048 47.4964C56.2526 46.8175 56.4983 46.0103 56.5099 45.1802V43.7773C56.5099 43.7435 56.5787 43.6642 56.7052 43.6642H63.2948C63.4212 43.6642 63.49 43.7435 63.49 43.7773V45.1802C63.5015 46.0096 63.7467 46.8161 64.1938 47.4946C64.6409 48.1731 65.269 48.6922 65.9965 48.9843C67.2168 49.5066 68.3712 50.1899 69.4326 51.0182C70.0499 51.5112 70.7865 51.8055 71.5555 51.8663C72.3244 51.9272 73.0936 51.752 73.7724 51.3615L74.9754 50.6511C75.0266 50.622 75.0854 50.6119 75.1426 50.6223C75.1998 50.6327 75.2522 50.6631 75.2915 50.7087L78.5286 56.6301L77.3331 57.3325C76.6579 57.7152 76.1089 58.3095 75.7602 59.0355C75.4114 59.7615 75.2796 60.5842 75.3826 61.3926C75.5735 62.7961 75.5735 64.2217 75.3826 65.6252C75.2798 66.4343 75.4123 67.2575 75.7621 67.9837C76.112 68.7098 76.6623 69.3037 77.3386 69.6853L78.5863 70.479L75.2915 76.2972C75.2532 76.3443 75.2009 76.3759 75.1433 76.3868C75.0858 76.3976 75.0265 76.387 74.9754 76.3567L73.7705 75.6443C73.0919 75.2559 72.3236 75.0819 71.5557 75.1427C70.7877 75.2035 70.0519 75.4966 69.4344 75.9876Z" fill="#404040"/>
<path d="M60 52.5859C57.9774 52.5859 56.0002 53.226 54.3184 54.4253C52.6367 55.6245 51.3259 57.3291 50.5519 59.3234C49.7779 61.3177 49.5753 63.5121 49.9699 65.6292C50.3645 67.7464 51.3385 69.691 52.7687 71.2174C54.1989 72.7438 56.0211 73.7832 58.0049 74.2043C59.9887 74.6255 62.0449 74.4093 63.9135 73.5833C65.7822 72.7572 67.3794 71.3583 68.5031 69.5635C69.6268 67.7687 70.2266 65.6586 70.2266 63.5C70.2236 60.6064 69.1452 57.8322 67.228 55.7861C65.3108 53.74 62.7114 52.5891 60 52.5859ZM60 70.4453C58.7129 70.4453 57.4547 70.038 56.3845 69.2748C55.3143 68.5117 54.4801 67.4269 53.9876 66.1579C53.495 64.8888 53.3661 63.4923 53.6172 62.145C53.8683 60.7978 54.4882 59.5602 55.3983 58.5889C56.3084 57.6176 57.468 56.9561 58.7304 56.6881C59.9928 56.4202 61.3013 56.5577 62.4904 57.0834C63.6796 57.609 64.696 58.4992 65.4111 59.6414C66.1261 60.7835 66.5078 62.1263 66.5078 63.5C66.5078 65.342 65.8222 67.1086 64.6017 68.4111C63.3813 69.7136 61.726 70.4453 60 70.4453Z" fill="#404040"/>
<path d="M12.5859 105.172C12.5859 106.742 13.0222 108.276 13.8394 109.582C14.6566 110.887 15.8182 111.904 17.1772 112.505C18.5363 113.106 20.0317 113.263 21.4744 112.957C22.9172 112.651 24.2424 111.895 25.2826 110.785C26.3227 109.674 27.0311 108.26 27.318 106.72C27.605 105.181 27.4577 103.585 26.8948 102.134C26.3319 100.684 25.3786 99.4443 24.1555 98.5721C22.9324 97.6999 21.4944 97.2344 20.0234 97.2344C18.9447 97.2397 17.8802 97.4978 16.9053 97.9905C9.84826 88.0728 6.04372 75.9532 6.07814 63.5C6.08145 53.9458 8.31285 44.5426 12.5711 36.1384C16.8294 27.7341 22.9807 20.5931 30.4703 15.3592C37.9599 10.1253 46.5524 6.96302 55.473 6.15756C64.3935 5.35211 73.3617 6.92878 81.5688 10.7454L83.0563 7.11004C74.2834 3.02935 64.6968 1.3432 55.1609 2.20365C45.625 3.0641 36.4398 6.44409 28.4334 12.0388C20.4271 17.6335 13.8515 25.2671 9.29956 34.251C4.74763 43.2349 2.36255 53.2868 2.35939 63.5C2.32189 76.8734 6.42562 89.8852 14.0325 100.513C13.0963 101.861 12.5894 103.494 12.5859 105.172ZM20.0234 101.203C20.7589 101.203 21.4779 101.436 22.0895 101.872C22.701 102.308 23.1777 102.928 23.4591 103.653C23.7406 104.378 23.8142 105.176 23.6707 105.946C23.5273 106.716 23.1731 107.423 22.653 107.978C22.1329 108.533 21.4703 108.911 20.7489 109.064C20.0276 109.218 19.2799 109.139 18.6003 108.839C17.9208 108.538 17.34 108.029 16.9314 107.377C16.5228 106.724 16.3047 105.957 16.3047 105.172C16.3047 104.119 16.6965 103.11 17.3939 102.366C18.0913 101.621 19.0372 101.203 20.0234 101.203Z" fill="#404040"/>
<path d="M107.414 21.8281C107.414 20.2582 106.978 18.7236 106.161 17.4183C105.343 16.113 104.182 15.0956 102.823 14.4948C101.464 13.8941 99.9683 13.7369 98.5256 14.0431C97.0828 14.3494 95.7576 15.1054 94.7174 16.2155C93.6773 17.3255 92.9689 18.7399 92.6819 20.2796C92.395 21.8193 92.5423 23.4153 93.1052 24.8657C93.6681 26.3161 94.6214 27.5557 95.8445 28.4279C97.0676 29.3001 98.5055 29.7656 99.9765 29.7656C101.055 29.7604 102.12 29.5023 103.095 29.0096C110.152 38.9273 113.956 51.0468 113.922 63.5C113.919 73.0543 111.687 82.4574 107.429 90.8617C103.171 99.2659 97.0193 106.407 89.5297 111.641C82.04 116.875 73.4476 120.037 64.527 120.842C55.6065 121.648 46.6383 120.071 38.4312 116.255L36.9437 119.89C45.7166 123.971 55.3032 125.657 64.8391 124.796C74.375 123.936 83.5602 120.556 91.5666 114.961C99.5729 109.366 106.149 101.733 110.7 92.749C115.252 83.7651 117.637 73.7133 117.641 63.5C117.678 50.1267 113.574 37.1148 105.967 26.4874C106.904 25.1392 107.411 23.5063 107.414 21.8281ZM99.9765 25.7969C99.241 25.7969 98.5221 25.5641 97.9105 25.128C97.299 24.6919 96.8223 24.0721 96.5409 23.3469C96.2594 22.6217 96.1858 21.8237 96.3292 21.0539C96.4727 20.284 96.8269 19.5768 97.347 19.0218C97.8671 18.4668 98.5297 18.0888 99.251 17.9356C99.9724 17.7825 100.72 17.8611 101.4 18.1615C102.079 18.4619 102.66 18.9706 103.069 19.6232C103.477 20.2759 103.695 21.0432 103.695 21.8281C103.695 22.8807 103.303 23.8902 102.606 24.6345C101.909 25.3787 100.963 25.7969 99.9765 25.7969Z" fill="#404040"/>
<path d="M60 19.8438C56.7192 19.842 53.4501 20.2597 50.2625 21.088L51.1438 24.9436C56.619 23.5187 62.3258 23.4391 67.834 24.7109C73.3422 25.9826 78.5079 28.5725 82.9416 32.2852C87.3752 35.998 90.9612 40.7366 93.4289 46.1438C95.8967 51.5509 97.1819 57.4855 97.1875 63.5C97.2068 71.66 94.8395 79.6231 90.4157 86.2786C89.3546 85.664 88.1681 85.3376 86.9609 85.3281C85.2969 85.3194 83.6778 85.9034 82.36 86.9878C81.0422 88.0721 80.1011 89.5948 79.6859 91.3145C79.2706 93.0341 79.4049 94.8525 80.0675 96.4816C80.73 98.1106 81.883 99.4571 83.3437 100.308C84.8044 101.158 86.4893 101.465 88.1314 101.178C89.7736 100.891 91.2791 100.027 92.4095 98.7241C93.5398 97.4209 94.2304 95.7523 94.3717 93.9829C94.5131 92.2134 94.0972 90.4442 93.1898 88.9556C98.2254 81.5579 100.928 72.6436 100.906 63.5C100.894 51.9257 96.5802 40.8292 88.9115 32.6449C81.2428 24.4606 70.8452 19.8569 60 19.8438ZM86.9609 97.2344C86.2254 97.2344 85.5065 97.0016 84.8949 96.5655C84.2834 96.1294 83.8067 95.5096 83.5253 94.7844C83.2438 94.0592 83.1701 93.2612 83.3136 92.4914C83.4571 91.7215 83.8113 91.0143 84.3314 90.4593C84.8515 89.9043 85.5141 89.5263 86.2354 89.3731C86.9568 89.22 87.7045 89.2986 88.384 89.599C89.0635 89.8994 89.6443 90.4081 90.053 91.0607C90.4616 91.7134 90.6797 92.4807 90.6797 93.2656C90.6797 94.3182 90.2879 95.3277 89.5905 96.072C88.8931 96.8163 87.9472 97.2344 86.9609 97.2344Z" fill="#404040"/>
<path d="M60 107.156C63.2808 107.158 66.5499 106.74 69.7375 105.912L68.8562 102.056C63.381 103.481 57.6742 103.561 52.166 102.289C46.6578 101.017 41.4921 98.4274 37.0584 94.7147C32.6248 91.002 29.0388 86.2634 26.5711 80.8562C24.1033 75.449 22.8181 69.5144 22.8125 63.4999C22.7932 55.3399 25.1605 47.3769 29.5843 40.7213C30.6454 41.3359 31.8319 41.6623 33.0391 41.6718C34.7031 41.6806 36.3222 41.0965 37.64 40.0122C38.9578 38.9278 39.8989 37.4052 40.3141 35.6855C40.7294 33.9658 40.5951 32.1474 39.9325 30.5184C39.27 28.8894 38.117 27.5429 36.6563 26.6922C35.1956 25.8416 33.5107 25.5354 31.8686 25.8223C30.2264 26.1091 28.7209 26.9726 27.5905 28.2758C26.4602 29.5791 25.7696 31.2476 25.6283 33.0171C25.4869 34.7865 25.9028 36.5557 26.8102 38.0444C21.7746 45.4421 19.0724 54.3563 19.0938 63.4999C19.1061 75.0743 23.4198 86.1708 31.0885 94.3551C38.7572 102.539 49.1548 107.143 60 107.156ZM33.0391 29.7656C33.7746 29.7656 34.4935 29.9983 35.1051 30.4344C35.7166 30.8705 36.1933 31.4903 36.4747 32.2155C36.7562 32.9407 36.8298 33.7387 36.6864 34.5086C36.5429 35.2784 36.1887 35.9856 35.6686 36.5406C35.1485 37.0957 34.4859 37.4737 33.7646 37.6268C33.0432 37.7799 32.2955 37.7014 31.616 37.401C30.9364 37.1006 30.3557 36.5919 29.947 35.9392C29.5384 35.2866 29.3203 34.5193 29.3203 33.7343C29.3203 32.6817 29.7121 31.6723 30.4095 30.928C31.1069 30.1837 32.0528 29.7656 33.0391 29.7656Z" fill="#404040"/>
</svg>
