<svg width="35" height="26" viewBox="0 0 35 26" fill="none" xmlns="http://www.w3.org/2000/svg">
<g clip-path="url(#clip0_215_1657)">
<path fill-rule="evenodd" clip-rule="evenodd" d="M13.8863 18.0935L13.8852 8.10662L23.3417 13.1173L13.8863 18.0935ZM34.65 6.37605C34.65 6.37605 34.3077 3.92681 33.2588 2.84826C31.9277 1.43203 30.4358 1.42536 29.7522 1.34316C24.8544 0.983271 17.5077 0.983276 17.5077 0.983276H17.4923C17.4923 0.983276 10.1456 0.983271 5.24782 1.34316C4.56313 1.42536 3.07235 1.43203 1.74016 2.84826C0.691254 3.92681 0.349997 6.37605 0.349997 6.37605C0.349997 6.37605 0 9.25293 0 12.1287V14.8256C0 17.7025 0.349997 20.5783 0.349997 20.5783C0.349997 20.5783 0.691254 23.0275 1.74016 24.1061C3.07235 25.5223 4.82124 25.4779 5.59999 25.6256C8.39999 25.8988 17.5 25.9833 17.5 25.9833C17.5 25.9833 24.8544 25.9722 29.7522 25.6123C30.4358 25.529 31.9277 25.5223 33.2588 24.1061C34.3077 23.0275 34.65 20.5783 34.65 20.5783C34.65 20.5783 35 17.7025 35 14.8256V12.1287C35 9.25293 34.65 6.37605 34.65 6.37605Z" fill="white"/>
</g>
<defs>
<clipPath id="clip0_215_1657">
<rect width="35" height="25" fill="white" transform="translate(0 0.983276)"/>
</clipPath>
</defs>
</svg>
